<?xml version="1.0" encoding="utf-8"?>
<!-- Generator: Adobe Illustrator 25.1.0, SVG Export Plug-In . SVG Version: 6.00 Build 0)  -->
<svg version="1.1" id="Ebene_1" xmlns="http://www.w3.org/2000/svg" xmlns:xlink="http://www.w3.org/1999/xlink" x="0px" y="0px"
	 viewBox="0 0 577.5 62.8" style="enable-background:new 0 0 577.5 62.8;" xml:space="preserve">
<style type="text/css">
	.st0{fill:#FFFFFF;}
</style>
<g>
	<g>
		<path class="st0" d="M384.1,62.6c-5.9,0-11.7,0-17.6,0c-1.6,0-3.1-0.1-4.6-0.6c-5.5-1.6-8.9-6.6-8.5-12.3c0.1-1.7,0.5-3.3,1-4.9
			c1.5-4.7,3-9.3,4.4-14c1.3-4.1,5.7-7.2,10.2-7.3c4.8,0,9.7,0,14.5,0c10.1,0,20.1,0,30.2,0c0.6,0,1.2,0,1.7,0
			c3.5,0.2,5.7,2.7,5.4,6.2c-0.1,1.8-0.8,3.4-1.9,4.8c-2.5,3-5.7,4.7-9.7,4.7c-11.7,0-23.5,0-35.2,0c-0.4,0-0.8,0-1.2,0
			c-1.1-0.2-1.5,0.4-1.7,1.3c-0.4,1.7-0.8,3.4-1.4,5c-0.3,0.9,0.1,1.2,0.8,1.3c0.6,0.1,1.3,0.1,1.9,0.1c11.3,0,22.6,0,33.8,0
			c0.8,0,1.7,0,2.5,0.1c2.9,0.3,4.7,2.5,4.8,5.4c0,1-0.3,2-0.6,3c-1.8,4.3-5.8,7.1-10.5,7.1C396.3,62.6,390.2,62.6,384.1,62.6"/>
		<path class="st0" d="M273,23.3c-0.4,1.4-0.8,2.6-1.1,3.7c-1.5,4.9-3,9.9-4.6,14.8c-3.4,10.4-10.6,16.9-21.1,19.8
			c-1.5,0.4-3,0.6-4.6,0.6c-13.7,0-27.3,0-41,0c-2.7,0-5.2-0.6-7.6-1.9c-3.9-2.2-6-5.5-6.5-9.9c-0.3-2.4-0.1-4.8,0.6-7.1
			c1.9-6.3,3.9-12.5,5.8-18.8c0.3-0.9,0.7-1.2,1.6-1.2c4.5,0,9,0,13.5,0c0.2,0,0.4,0.1,0.6,0.1c0.3,0.6-0.1,1.1-0.3,1.6
			c-1.7,5.4-3.4,10.8-5.1,16.2c-0.1,0.2-0.1,0.5-0.2,0.7c-0.9,3.3,0,4.6,3.5,4.6c12.8,0,25.6,0,38.5,0c3.5,0,5.5-1.4,6.6-4.8
			c1.8-5.6,3.5-11.2,5.3-16.7c0.6-1.9,0.2-1.7,2.4-1.7C263.7,23.3,268.2,23.3,273,23.3"/>
		<path class="st0" d="M295.2,23.5c-2.5,7.8-4.9,15.5-7.3,23.3c0.6,0.3,1.2,0.2,1.7,0.2c12.4,0,24.8,0,37.1,0c3,0,5.5-1.6,6.5-4.7
			c1.7-5.8,3.6-11.6,5.4-17.3c0.6-2,0.4-1.6,2.2-1.6c4,0,8,0,12,0c0.5,0,1-0.1,1.7,0.2c-0.5,1.6-1,3.3-1.5,4.9
			c-1.5,5-3.1,10-4.6,14.9c-2.8,9.2-13.8,19.1-26.3,19c-15.1-0.1-30.3,0-45.4,0c-0.6,0-1.3,0-1.9-0.1c-3.7-0.6-5.7-3.5-4.7-7.2
			c1.3-4.4,2.7-8.7,4-13.1c1.8-5.8,3.6-11.6,5.3-17.4c0.3-1.1,0.8-1.4,1.9-1.4c4.3,0.1,8.5,0,12.8,0
			C294.2,23.4,294.6,23.5,295.2,23.5"/>
		<path class="st0" d="M441.9,40.2c-1.4,4.8-2.8,9.5-4.3,14.2c-1.4,4.4-4.6,7-9.1,8c-0.1,0-0.3,0.1-0.4,0.1
			c-4.4,0.6-7.3-2.6-6.1-6.9c1.2-4.4,2.6-8.7,4-13.1c1.8-5.9,3.6-11.8,5.4-17.7c0.5-1.5,0.5-1.5,1.9-1.5c14.9,0,29.8,0,44.7,0
			c0.2,0,0.5-0.1,0.8,0.4c-5.5,2.6-11,5.1-16.6,7.7c0.5,0.7,1.1,0.9,1.6,1.2c8.3,4.9,16.6,9.8,25,14.7c4.1,2.4,5,5.9,2.4,9.9
			c-1.5,2.3-3.4,4-6.1,4.9c-2.3,0.7-4.5,0.7-6.8-0.6c-11.7-7-23.4-13.8-35.1-20.7C442.9,40.4,442.6,40.1,441.9,40.2"/>
		<path class="st0" d="M576,23.3c-0.7,2.4-1.4,4.8-2.2,7.1c-2.4,7.8-4.8,15.6-7.1,23.5c-1.1,3.6-3.2,6.2-6.6,7.9
			c-1.4,0.7-2.8,0.9-4.3,0.8c-3.7-0.2-6-3.3-5-6.9c1.6-5.4,3.3-10.8,5-16.2c0.6-1.9,1.1-3.8,1.7-5.7c-0.7-0.3-1.3-0.2-1.8-0.2
			c-11.3,0-22.6,0-33.8,0c-1.8,0-1.8,0-2.4,1.7c-2,6.4-4,12.8-6,19.1c-1.3,4.1-5.6,7.3-9.7,7.3c-3.8,0.1-6.2-2.6-5.8-6.3
			c0.1-0.8,0.3-1.5,0.5-2.3c2.9-9.5,5.8-19.1,8.8-28.6c0.5-1.6,0.5-1.6,2.1-1.6c21.7,0,43.4,0,65.1,0C574.9,23.1,575.4,23,576,23.3"
			/>
		<path class="st0" d="M110.5,15c0.3-1.3,0.9-2.3,1.5-3.2c4-6.1,9.6-10,16.8-11.4c1.3-0.3,2.7-0.2,4-0.2c14.6,0,29.3,0,43.9,0
			c2.4,0,4.8,0.2,7,1.3c5,2.4,7.1,7.3,6.7,12.6c-0.1,0.7-0.4,0.9-1,0.9c-0.3,0-0.6,0-1,0c-25.4,0-50.8,0-76.2,0H110.5z"/>
		<path class="st0" d="M282.2,14.9c0.8-2.6,1.3-5.2,2.5-7.7c2-4.4,5.5-7,10.4-7c15.7,0,31.3,0,47,0c3.1,0,6,0.7,8.6,2.4
			c4,2.7,5.8,6.5,5.9,11.3c0,0.9-0.2,1.3-1.2,1.2c-0.4-0.1-0.9,0-1.4,0c-23.1,0-46.2,0-69.4,0C283.8,15.2,283,15.3,282.2,14.9"/>
		<path class="st0" d="M197,14.5c-0.1-0.7,0.4-1.1,0.7-1.6c4.8-7,11.3-11.5,19.8-12.8c0.9-0.1,1.9-0.2,2.9-0.2c13.2,0,26.4,0,39.6,0
			c1.7,0,3.5,0.2,5.2,0.6c5.3,1.3,9.6,5.9,9.9,13c0,0.7-0.1,1.1-0.9,1.1c-0.4,0-0.8,0-1.2,0c-24.7,0-49.4,0-74,0
			C198.3,14.6,197.6,14.7,197,14.5"/>
		<path class="st0" d="M511.3,14.9c0-0.8,0.4-1.3,0.7-1.7c5.9-8.4,13.7-13.3,24.2-13.2c8.9,0,17.8,0,26.7,0c2.7,0,5.3,0.3,7.7,1.5
			c5,2.5,7.3,6.6,7.5,12.1c0,1-0.2,1.5-1.3,1.3c-0.2,0-0.4,0-0.6,0c-21.3,0-42.5,0-63.8,0H511.3z"/>
		<path class="st0" d="M394.6,14.5c-8.6,0-17.1,0-25.7,0c-1.9,0-2.7-0.6-3.3-2.3c-0.6-1.6-0.4-3.2,0.2-4.7c1.4-3.6,5.5-7.4,10.6-7.3
			c14.9,0.1,29.9,0,44.9,0c0.4,0,0.8,0,1.2,0c3.9,0.2,6.2,3.2,5.3,7c-0.5,2.1-1.6,3.9-3.1,5.4c-1.3,1.2-2.7,1.9-4.7,1.9
			C411.5,14.4,403.1,14.5,394.6,14.5"/>
		<path class="st0" d="M154.9,23.3c-1.2,3.9-2.3,7.5-3.5,11.1c-2,6.4-4,12.8-5.9,19.2c-1,3.3-2.9,5.8-5.9,7.6
			c-1.9,1.1-3.8,1.4-6,1.1c-2.9-0.5-4.8-2.9-4.5-5.8c0.1-1,0.3-1.9,0.6-2.8c3-9.5,6-19,8.9-28.6c0.6-1.8,0.6-1.8,2.3-1.8
			C145.5,23.3,150,23.3,154.9,23.3"/>
		<path class="st0" d="M123,23.3c0.1,0.9-0.3,1.5-0.4,2.1c-3,9.8-6.1,19.5-9.2,29.3c-1.5,4.8-6.4,8.2-11,7.7
			c-2.8-0.3-4.6-2.2-4.8-4.9c-0.1-1.2,0.1-2.4,0.5-3.6c3-9.6,6-19.3,9-28.9c0.5-1.5,0.5-1.5,1.9-1.5C113.6,23.3,118.2,23.3,123,23.3
			"/>
		<path class="st0" d="M187.7,23.6c0.1,0.8-0.3,1.5-0.6,2.2c-2.8,9.1-5.6,18.2-8.4,27.3c-0.9,2.9-2.3,5.4-4.8,7.3
			c-1.9,1.4-4,2.3-6.5,2.1c-3.9-0.3-6.1-3.4-5-7.2c1-3.5,2.1-6.9,3.2-10.3c2.1-6.6,4.1-13.3,6.2-19.9c0.6-2,0.5-1.6,2.2-1.6
			c4.1,0,8.1,0,12.2,0C186.6,23.3,187.2,23.1,187.7,23.6"/>
		<path class="st0" d="M465.4,14.9c3.8-1.7,7.1-3.1,10.4-4.6c6.2-2.7,12.4-5.5,18.5-8.2c1.4-0.6,2.7-1.1,4.3-1.1
			c3.9,0,6.4,2.9,5.6,6.8c-0.7,3.2-2.8,5.4-5.5,7.1c-0.4,0.3-0.9,0.2-1.3,0.2c-10.4,0-20.8,0-31.1,0C466.1,15,465.9,15,465.4,14.9"
			/>
		<path class="st0" d="M434.1,15.1c1.1-3,1.5-6.1,3.1-8.7c2.1-3.6,5.2-5.9,9.6-5.7c3.6,0.1,5.9,3,5.1,6.6c-0.5,2.4-1.5,4.7-2.2,7
			c-0.2,0.6-0.5,0.8-1.1,0.8C443.9,15,439.2,15.1,434.1,15.1"/>
	</g>
	<polygon class="st0" points="59.5,1.2 53,10.4 47.1,19 46.7,19.1 13.5,19.1 0.8,0.3 0.5,-0.1 60.3,-0.1 	"/>
	<polygon class="st0" points="69.6,24 53.2,47.7 42.9,62.6 42.7,62.7 31.5,45.9 31.5,45.7 49.4,19.6 63.1,-0.1 86.4,-0.1 	"/>
	<polygon class="st0" points="32.1,40.8 30,43.7 22.1,32 15.3,21.7 45.2,21.7 	"/>
</g>
</svg>
